<?xml version="1.0" encoding="utf-8"?>
<!-- Generator: Adobe Illustrator 21.0.0, SVG Export Plug-In . SVG Version: 6.00 Build 0)  -->
<svg version="1.1" id="Layer_1" xmlns="http://www.w3.org/2000/svg" xmlns:xlink="http://www.w3.org/1999/xlink" x="0px" y="0px"
	 viewBox="0 0 600 600" style="enable-background:new 0 0 600 600;" xml:space="preserve">
<style type="text/css">
	.st0{fill:none;stroke:#000000;stroke-width:12;stroke-miterlimit:10;}
</style>
<circle class="st0" cx="300" cy="300" r="223"/>
<g>
	<path d="M300,83c1.2,4.5,2.3,9,3.3,13.6c1,4.5,1.9,9,2.8,13.6c0.2,1.1,0.1,2.3,0,3.4c-0.1,1.1,0,2.3,0,3.4v6.8v13.6v54.3v54.3v27.1
		c-1.8,9-3.6,18.1-6,27.1c-2.4-9-4.2-18.1-6-27.1v-27.1v-54.3v-54.3v-13.6v-6.8c0-1.1,0-2.3,0-3.4c-0.1-1.1-0.2-2.3,0-3.4
		c0.9-4.5,1.8-9,2.8-13.6C297.7,92,298.8,87.5,300,83z"/>
</g>
</svg>
